HIERARCHY
ROOT hip
{
  OFFSET 5.70873 43.8894 -1.52928
  CHANNELS 6 Xposition Yposition Zposition Zrotation Xrotation Yrotation
  JOINT abdomen
  {
    OFFSET 0 5.99393 0.287273
    CHANNELS 6 Xposition Yposition Zposition Zrotation Xrotation Yrotation
    JOINT chest
    {
      OFFSET 0 6.65865 -0.856112
      CHANNELS 6 Xposition Yposition Zposition Zrotation Xrotation Yrotation
      JOINT neck
      {
        OFFSET 0 8.65624 -1.42685
        CHANNELS 6 Xposition Yposition Zposition Zrotation Xrotation Yrotation
        JOINT head
        {
          OFFSET 0 3.80999 -0.190247
          CHANNELS 6 Xposition Yposition Zposition Zrotation Xrotation Yrotation
          End Site
          {
            OFFSET 0 0 0
          }
        }
      }
      JOINT rCollar
      {
        OFFSET -1.4963 7.5744 -1.52136
        CHANNELS 6 Xposition Yposition Zposition Zrotation Xrotation Yrotation
        JOINT rShldr
        {
          OFFSET -5.47506 -0.905672 0.485692
          CHANNELS 6 Xposition Yposition Zposition Zrotation Xrotation Yrotation
          JOINT rForeArm
          {
            OFFSET -11.3069 -0.201091 0.618544
            CHANNELS 6 Xposition Yposition Zposition Zrotation Xrotation Yrotation
            JOINT rHand
            {
              OFFSET -9.61414 -0.254739 3.48553
              CHANNELS 6 Xposition Yposition Zposition Zrotation Xrotation Yrotation
              JOINT rThumb1
              {
                OFFSET 0.176263 -0.07068 1.26622
                CHANNELS 6 Xposition Yposition Zposition Zrotation Xrotation Yrotation
                JOINT rThumb2
                {
                  OFFSET -1.04683 -0.546484 1.82182
                  CHANNELS 6 Xposition Yposition Zposition Zrotation Xrotation Yrotation
                  JOINT rThumb3
                  {
                    OFFSET -0.993472 -0.621916 0.655506
                    CHANNELS 6 Xposition Yposition Zposition Zrotation Xrotation Yrotation
                    End Site
                    {
                      OFFSET -0.996134 -0.66263 0.644615
                    }
                  }
                }
              }
              JOINT rIndex1
              {
                OFFSET -2.64253 0.566363 2.4162
                CHANNELS 6 Xposition Yposition Zposition Zrotation Xrotation Yrotation
                JOINT rIndex2
                {
                  OFFSET -1.39394 -0.635138 0.899356
                  CHANNELS 6 Xposition Yposition Zposition Zrotation Xrotation Yrotation
                  JOINT rIndex3
                  {
                    OFFSET -0.622395 -0.856016 0.402182
                    CHANNELS 6 Xposition Yposition Zposition Zrotation Xrotation Yrotation
                    End Site
                    {
                      OFFSET -0.472476 -0.801802 0.34216
                    }
                  }
                }
              }
              JOINT rMid1
              {
                OFFSET -3.20814 0.514427 1.52547
                CHANNELS 6 Xposition Yposition Zposition Zrotation Xrotation Yrotation
                JOINT rMid2
                {
                  OFFSET -1.56545 -0.497974 0.68919
                  CHANNELS 6 Xposition Yposition Zposition Zrotation Xrotation Yrotation
                  JOINT rMid3
                  {
                    OFFSET -0.679943 -1.17582 0.444246
                    CHANNELS 6 Xposition Yposition Zposition Zrotation Xrotation Yrotation
                    End Site
                    {
                      OFFSET -0.343874 -0.941341 0.267611
                    }
                  }
                }
              }
              JOINT rRing1
              {
                OFFSET -3.47877 0.200518 0.597719
                CHANNELS 6 Xposition Yposition Zposition Zrotation Xrotation Yrotation
                JOINT rRing2
                {
                  OFFSET -1.28208 -0.53155 0.44672
                  CHANNELS 6 Xposition Yposition Zposition Zrotation Xrotation Yrotation
                  JOINT rRing3
                  {
                    OFFSET -0.710288 -0.970167 0.4032
                    CHANNELS 6 Xposition Yposition Zposition Zrotation Xrotation Yrotation
                    End Site
                    {
                      OFFSET -0.403228 -0.950952 0.378354
                    }
                  }
                }
              }
              JOINT rPinky1
              {
                OFFSET -3.42483 -0.278904 -0.240415
                CHANNELS 6 Xposition Yposition Zposition Zrotation Xrotation Yrotation
                JOINT rPinky2
                {
                  OFFSET -1.05787 -0.635999 0.156459
                  CHANNELS 6 Xposition Yposition Zposition Zrotation Xrotation Yrotation
                  JOINT rPinky3
                  {
                    OFFSET -0.42815 -0.754232 0.287187
                    CHANNELS 6 Xposition Yposition Zposition Zrotation Xrotation Yrotation
                    End Site
                    {
                      OFFSET -0.235717 -0.725605 0.279416
                    }
                  }
                }
              }
            }
          }
        }
      }
      JOINT lCollar
      {
        OFFSET 1.4963 7.5744 -1.52136
        CHANNELS 6 Xposition Yposition Zposition Zrotation Xrotation Yrotation
        JOINT lShldr
        {
          OFFSET 5.47506 -0.905672 0.485692
          CHANNELS 6 Xposition Yposition Zposition Zrotation Xrotation Yrotation
          JOINT lForeArm
          {
            OFFSET 11.3069 -0.201091 0.618544
            CHANNELS 6 Xposition Yposition Zposition Zrotation Xrotation Yrotation
            JOINT lHand
            {
              OFFSET 9.61414 -0.254739 3.48553
              CHANNELS 6 Xposition Yposition Zposition Zrotation Xrotation Yrotation
              JOINT lThumb1
              {
                OFFSET -0.176263 -0.07068 1.26622
                CHANNELS 6 Xposition Yposition Zposition Zrotation Xrotation Yrotation
                JOINT lThumb2
                {
                  OFFSET 1.04683 -0.546484 1.82182
                  CHANNELS 6 Xposition Yposition Zposition Zrotation Xrotation Yrotation
                  JOINT lThumb3
                  {
                    OFFSET 0.993472 -0.621916 0.655506
                    CHANNELS 6 Xposition Yposition Zposition Zrotation Xrotation Yrotation
                    End Site
                    {
                      OFFSET 0.996134 -0.66263 0.644615
                    }
                  }
                }
              }
              JOINT lIndex1
              {
                OFFSET 2.64253 0.566363 2.4162
                CHANNELS 6 Xposition Yposition Zposition Zrotation Xrotation Yrotation
                JOINT lIndex2
                {
                  OFFSET 1.39394 -0.635138 0.899356
                  CHANNELS 6 Xposition Yposition Zposition Zrotation Xrotation Yrotation
                  JOINT lIndex3
                  {
                    OFFSET 0.622395 -0.856016 0.402182
                    CHANNELS 6 Xposition Yposition Zposition Zrotation Xrotation Yrotation
                    End Site
                    {
                      OFFSET 0.472476 -0.801802 0.34216
                    }
                  }
                }
              }
              JOINT lMid1
              {
                OFFSET 3.20814 0.514427 1.52547
                CHANNELS 6 Xposition Yposition Zposition Zrotation Xrotation Yrotation
                JOINT lMid2
                {
                  OFFSET 1.56545 -0.497974 0.68919
                  CHANNELS 6 Xposition Yposition Zposition Zrotation Xrotation Yrotation
                  JOINT lMid3
                  {
                    OFFSET 0.679943 -1.17582 0.444246
                    CHANNELS 6 Xposition Yposition Zposition Zrotation Xrotation Yrotation
                    End Site
                    {
                      OFFSET 0.343874 -0.941341 0.267611
                    }
                  }
                }
              }
              JOINT lRing1
              {
                OFFSET 3.47877 0.200518 0.597719
                CHANNELS 6 Xposition Yposition Zposition Zrotation Xrotation Yrotation
                JOINT lRing2
                {
                  OFFSET 1.28208 -0.53155 0.44672
                  CHANNELS 6 Xposition Yposition Zposition Zrotation Xrotation Yrotation
                  JOINT lRing3
                  {
                    OFFSET 0.710288 -0.970167 0.4032
                    CHANNELS 6 Xposition Yposition Zposition Zrotation Xrotation Yrotation
                    End Site
                    {
                      OFFSET 0.403228 -0.950952 0.378354
                    }
                  }
                }
              }
              JOINT lPinky1
              {
                OFFSET 3.42483 -0.278904 -0.240415
                CHANNELS 6 Xposition Yposition Zposition Zrotation Xrotation Yrotation
                JOINT lPinky2
                {
                  OFFSET 1.05787 -0.635999 0.156459
                  CHANNELS 6 Xposition Yposition Zposition Zrotation Xrotation Yrotation
                  JOINT lPinky3
                  {
                    OFFSET 0.42815 -0.754232 0.287187
                    CHANNELS 6 Xposition Yposition Zposition Zrotation Xrotation Yrotation
                    End Site
                    {
                      OFFSET 0.235717 -0.725605 0.279416
                    }
                  }
                }
              }
            }
          }
        }
      }
    }
  }
  JOINT rThigh
  {
    OFFSET -4.17848 -1.02486 0.046356
    CHANNELS 6 Xposition Yposition Zposition Zrotation Xrotation Yrotation
    JOINT rShin
    {
      OFFSET 1.27155 -17.465 -0.237699
      CHANNELS 6 Xposition Yposition Zposition Zrotation Xrotation Yrotation
      JOINT rFoot
      {
        OFFSET 0.529163 -17.3815 -1.19582
        CHANNELS 6 Xposition Yposition Zposition Zrotation Xrotation Yrotation
        JOINT rToe
        {
          OFFSET -0.711591 -4.4863 4.0596
          CHANNELS 6 Xposition Yposition Zposition Zrotation Xrotation Yrotation
          End Site
          {
            OFFSET -0.869915 -1.10655 1.99006
          }
        }
      }
    }
  }
  JOINT lThigh
  {
    OFFSET 4.17848 -1.02486 0.046356
    CHANNELS 6 Xposition Yposition Zposition Zrotation Xrotation Yrotation
    JOINT lShin
    {
      OFFSET -1.27155 -17.465 -0.237699
      CHANNELS 6 Xposition Yposition Zposition Zrotation Xrotation Yrotation
      JOINT lFoot
      {
        OFFSET -0.529163 -17.3815 -1.19582
        CHANNELS 6 Xposition Yposition Zposition Zrotation Xrotation Yrotation
        JOINT lToe
        {
          OFFSET 0.711591 -4.4863 4.0596
          CHANNELS 6 Xposition Yposition Zposition Zrotation Xrotation Yrotation
          End Site
          {
            OFFSET 0.869915 -1.10655 1.99006
          }
        }
      }
    }
  }
}
MOTION
Frames:	4
Frame Time:	0.0333333
-50.086 43.869 -40.501 -14.7631 7.08776 -41.0642 0 5.99393 0.287273 5.72076 1.74844 -1.68486 0 6.65865 -0.856112 11.4977 3.31931 -3.53796 7.10543e-015 8.65624 -1.42685 3.32427 3.10749 10.9695 -1.42109e-014 3.80999 -0.190247 -4.71154 1.06926 8.543 -1.4963 7.5744 -1.52136 6.07276 -0.0913484 -1.16289 -5.47506 -0.905672 0.485692 64.8443 4.51041 -6.55963 -11.3069 -0.201091 0.618544 9.624 -32.822 11.9958 -9.61414 -0.254739 3.48553 -3.43087 39.0701 3.73294 0.176263 -0.07068 1.26622 -1.26683 5.56406 -12.8255 -1.04683 -0.546484 1.82182 1.48276 -1.448 4.28414 -0.993472 -0.621916 0.655506 -2.21855 2.6424 -7.05253 -2.64253 0.566363 2.4162 15.9069 8.26604 -9.59732 -1.39394 -0.635138 0.899356 8.34905 2.12041 -1.38193 -0.622395 -0.856016 0.402182 11.2611 2.80627 -1.93269 -3.20814 0.514427 1.52547 9.29471 5.90439 -2.21415 -1.56545 -0.497974 0.68919 12.8366 3.68491 -2.23809 -0.679943 -1.17582 0.444246 8.71062 2.56173 -1.43217 -3.47877 0.200518 0.597719 7.788 1.99908 -1.24256 -1.28208 -0.53155 0.44672 12.3618 3.97121 -2.67898 -0.710288 -0.970167 0.4032 8.27239 2.73045 -1.70301 -3.42483 -0.278904 -0.240415 8.41176 1.5279 -0.119267 -1.05787 -0.635999 0.156459 10.0087 3.56331 -1.99455 -0.42815 -0.754232 0.287187 8.44537 3.03408 -1.64441 1.4963 7.5744 -1.52136 13.9504 -0.578535 2.2744 5.47506 -0.905672 0.485692 -95.4968 16.6623 25.0349 11.3069 -0.201091 0.618544 -17.3926 -39.971 -20.9262 9.61414 -0.254739 3.48553 8.05643 49.7356 9.60112 -0.176263 -0.07068 1.26622 4.60811 2.99531 5.53494 1.04683 -0.546484 1.82182 -3.80908 -0.892267 -6.7195 0.993472 -0.621916 0.655506 -1.70408 -0.457486 -3.02183 2.64253 0.566363 2.4162 7.9498 -3.45695 -5.88398 1.39394 -0.635138 0.899356 5.74135 -2.04838 -2.21031 0.622395 -0.856016 0.402182 6.68699 -2.40936 -2.55723 3.20814 0.514427 1.52547 9.53899 -6.01681 -4.1916 1.56545 -0.497974 0.68919 7.35069 -3.00751 -2.79868 0.679943 -1.17582 0.444246 8.78787 -3.64258 -3.30605 3.47877 0.200518 0.597719 10.3871 -3.86557 -2.28541 1.28208 -0.53155 0.44672 7.37749 -3.34575 -3.19881 0.710288 -0.970167 0.4032 8.79484 -4.03651 -3.76916 3.42483 -0.278904 -0.240415 10.9446 -3.60825 -0.50496 1.05787 -0.635999 0.156459 9.30445 -4.61176 -3.85794 0.42815 -0.754232 0.287187 8.51356 -4.19059 -3.55463 -4.17848 -1.02486 0.046356 18.7468 2.59302 0.678348 1.27155 -17.465 -0.237699 -2.59962 -3.20848 0.575296 0.529163 -17.3815 -1.19582 1.30195 2.0485 -20.5526 -0.711591 -4.4863 4.0596 0.773053 5.58127 -0.187468 4.17848 -1.02486 0.046356 10.7225 -2.70271 -16.4737 -1.27155 -17.465 -0.237699 0.905819 44.2089 -5.65583 -0.529163 -17.3815 -1.19582 12.1298 -1.79352 -10.6586 0.711591 -4.4863 4.0596 -0.178943 1.46682 -0.0716109 
-50.8614 43.9352 -39.9262 -14.9185 6.01799 -40.4629 0 5.99393 0.287273 5.48152 2.04762 -0.847908 -1.42109e-014 6.65865 -0.856112 11.0029 4.00453 -1.88957 7.10543e-015 8.65624 -1.42685 3.23491 3.1913 9.6449 0 3.80999 -0.190247 -4.29003 1.08879 7.62631 -1.4963 7.5744 -1.52136 6.16354 -0.0909288 -1.20755 -5.47506 -0.905672 0.485692 64.5301 5.89025 -4.38175 -11.3069 -0.201091 0.618544 10.1395 -33.5103 13.1726 -9.61414 -0.254739 3.48553 -4.1536 38.7952 4.75967 0.176263 -0.07068 1.26622 -1.32063 5.64656 -13.1096 -1.04683 -0.546484 1.82182 1.48275 -1.448 4.28415 -0.993472 -0.621916 0.655506 -2.19346 2.57913 -6.90017 -2.64253 0.566363 2.4162 15.8197 8.32034 -9.56134 -1.39394 -0.635138 0.899356 7.76508 1.97932 -1.27565 -0.622395 -0.856016 0.402182 11.0074 2.74771 -1.88338 -3.20814 0.514427 1.52547 9.1093 5.85538 -2.16919 -1.56545 -0.497974 0.68919 12.3832 3.56462 -2.14575 -0.679943 -1.17582 0.444246 8.45974 2.49142 -1.3857 -3.47877 0.200518 0.597719 7.54109 1.91934 -1.18926 -1.28208 -0.53155 0.44672 11.9142 3.83917 -2.56813 -0.710288 -0.970167 0.4032 8.02509 2.65296 -1.64671 -3.42483 -0.278904 -0.240415 8.16667 1.4363 -0.0713466 -1.05787 -0.635999 0.156459 9.56552 3.41436 -1.89383 -0.42815 -0.754232 0.287187 8.20184 2.95559 -1.59291 1.4963 7.5744 -1.52136 13.8482 -0.620131 1.76789 5.47506 -0.905672 0.485692 -93.5396 16.0202 25.7203 11.3069 -0.201091 0.618544 -17.4589 -41.1531 -20.6955 9.61414 -0.254739 3.48553 6.97534 46.6907 8.87065 -0.176263 -0.07068 1.26622 4.42547 2.99262 5.9591 1.04683 -0.546484 1.82182 -3.80906 -0.892261 -6.71949 0.993472 -0.621916 0.655506 -1.28209 -0.353156 -2.27619 2.64253 0.566363 2.4162 7.02009 -2.6186 -4.5516 1.39394 -0.635138 0.899356 5.14492 -1.82412 -1.98897 0.622395 -0.856016 0.402182 5.85448 -2.09131 -2.25224 3.20814 0.514427 1.52547 8.75666 -5.12167 -3.76573 1.56545 -0.497974 0.68919 6.34152 -2.57035 -2.43442 0.679943 -1.17582 0.444246 7.97193 -3.28012 -3.0199 3.47877 0.200518 0.597719 9.46867 -3.55955 -2.16883 1.28208 -0.53155 0.44672 6.40174 -2.87539 -2.7963 0.710288 -0.970167 0.4032 7.99493 -3.64752 -3.45009 3.42483 -0.278904 -0.240415 9.87309 -3.38744 -0.648449 1.05787 -0.635999 0.156459 8.34225 -4.10007 -3.48869 0.42815 -0.754232 0.287187 7.74408 -3.77277 -3.25134 -4.17848 -1.02486 0.046356 18.4812 5.01779 0.494354 1.27155 -17.465 -0.237699 -2.96869 -3.21423 0.676626 0.529163 -17.3815 -1.19582 2.54613 -0.150831 -21.2976 -0.711591 -4.4863 4.0596 -0.160006 6.19235 -0.109671 4.17848 -1.02486 0.046356 9.30564 -7.16388 -17.7179 -1.27155 -17.465 -0.237699 1.11815 48.017 -5.63877 -0.529163 -17.3815 -1.19582 15.0884 -3.74951 -9.50912 0.711591 -4.4863 4.0596 -0.110306 0.90244 -0.0446282 
-51.4991 44.0394 -39.3144 -14.2464 4.34674 -40.5246 0 5.99393 0.287273 4.88491 2.39697 -0.0550005 0 6.65865 -0.856112 9.78496 4.78052 -0.314698 7.10543e-015 8.65624 -1.42685 3.18089 3.72414 8.72426 1.42109e-014 3.80999 -0.190247 -4.25273 0.651053 6.77239 -1.4963 7.5744 -1.52136 5.74379 -0.0874842 -1.42642 -5.47506 -0.905672 0.485692 64.3448 8.94347 -1.6069 -11.3069 -0.201091 0.618544 10.7087 -34.7765 14.3889 -9.61414 -0.254739 3.48553 -4.35905 38.3755 5.13722 0.176263 -0.07068 1.26622 -1.38363 5.74528 -13.442 -1.04683 -0.546484 1.82182 1.48275 -1.44799 4.28416 -0.993472 -0.621916 0.655506 -2.11873 2.49382 -6.68018 -2.64253 0.566363 2.4162 15.6781 8.37499 -9.50867 -1.39394 -0.635138 0.899356 7.06268 1.80811 -1.14965 -0.622395 -0.856016 0.402182 10.6862 2.67327 -1.82137 -3.20814 0.514427 1.52547 8.86262 5.78991 -2.10962 -1.56545 -0.497974 0.68919 11.8229 3.41491 -2.03291 -0.679943 -1.17582 0.444246 8.14219 2.40213 -1.32733 -3.47877 0.200518 0.597719 7.22864 1.81814 -1.12234 -1.28208 -0.53155 0.44672 11.3612 3.6748 -2.43256 -0.710288 -0.970167 0.4032 7.71211 2.55452 -1.57593 -3.42483 -0.278904 -0.240415 7.85677 1.32021 -0.0114278 -1.05787 -0.635999 0.156459 9.01803 3.22914 -1.77092 -0.42815 -0.754232 0.287187 7.88851 2.84293 -1.52295 1.4963 7.5744 -1.52136 13.5182 -0.628836 1.39407 5.47506 -0.905672 0.485692 -91.6518 13.6416 26.3134 11.3069 -0.201091 0.618544 -17.5533 -42.4792 -20.4633 9.61414 -0.254739 3.48553 5.81652 44.3715 8.2768 -0.176263 -0.07068 1.26622 4.23185 2.98111 6.4083 1.04683 -0.546484 1.82182 -3.80909 -0.892279 -6.7195 0.993472 -0.621916 0.655506 -0.861526 -0.243318 -1.53134 2.64253 0.566363 2.4162 5.99592 -1.7267 -3.14216 1.39394 -0.635138 0.899356 4.50109 -1.58497 -1.74785 0.622395 -0.856016 0.402182 4.9588 -1.75478 -1.9197 3.20814 0.514427 1.52547 7.90008 -4.17896 -3.3064 1.56545 -0.497974 0.68919 5.25713 -2.10902 -2.03562 0.679943 -1.17582 0.444246 7.09409 -2.89547 -2.70701 3.47877 0.200518 0.597719 8.4853 -3.23408 -2.03088 1.28208 -0.53155 0.44672 5.35266 -2.37894 -2.3562 0.710288 -0.970167 0.4032 7.14651 -3.23357 -3.10417 3.42483 -0.278904 -0.240415 8.731 -3.14968 -0.781356 1.05787 -0.635999 0.156459 7.30792 -3.55858 -3.08365 0.42815 -0.754232 0.287187 6.87669 -3.32334 -2.90851 -4.17848 -1.02486 0.046356 17.1911 7.22125 0.417812 1.27155 -17.465 -0.237699 -3.2039 -3.12765 0.680045 0.529163 -17.3815 -1.19582 2.47699 -1.50443 -21.3831 -0.711591 -4.4863 4.0596 -0.330091 6.51669 -0.0934179 4.17848 -1.02486 0.046356 6.48586 -10.3825 -18.7786 -1.27155 -17.465 -0.237699 1.26368 48.1245 -5.19981 -0.529163 -17.3815 -1.19582 18.2458 -4.48372 -6.54115 0.711591 -4.4863 4.0596 -0.182664 1.49749 -0.0730653 
-52.042 44.2038 -38.6883 -12.8546 2.66183 -41.4677 0 5.99393 0.287273 4.04576 2.75427 0.695325 0 6.65865 -0.856112 8.07196 5.55063 1.19622 0 8.65624 -1.42685 3.18138 3.75057 8.50606 0 3.80999 -0.190247 -4.4452 0.722503 6.35357 -1.4963 7.5744 -1.52136 4.95943 -0.089366 -1.19114 -5.47506 -0.905672 0.485692 64.4801 10.8267 1.67263 -11.3069 -0.201091 0.618544 11.0839 -35.0439 15.2726 -9.61414 -0.254739 3.48553 -4.70913 37.7142 5.80867 0.176263 -0.07068 1.26622 -1.45422 5.85957 -13.8072 -1.04683 -0.546484 1.82182 1.48273 -1.44798 4.28417 -0.993472 -0.621916 0.655506 -2.04373 2.40877 -6.46009 -2.64253 0.566363 2.4162 15.4691 8.42318 -9.43647 -1.39394 -0.635138 0.899356 6.26342 1.61128 -1.00878 -0.622395 -0.856016 0.402182 10.3 2.58324 -1.74729 -3.20814 0.514427 1.52547 8.55105 5.70682 -2.03476 -1.56545 -0.497974 0.68919 11.1662 3.23788 -1.90245 -0.679943 -1.17582 0.444246 7.76022 2.29427 -1.25774 -3.47877 0.200518 0.597719 6.85297 1.69598 -1.04265 -1.28208 -0.53155 0.44672 10.7131 3.48027 -2.27558 -0.710288 -0.970167 0.4032 7.33573 2.43555 -1.49148 -3.42483 -0.278904 -0.240415 7.48447 1.18036 0.0596281 -1.05787 -0.635999 0.156459 8.37637 3.01036 -1.62901 -0.42815 -0.754232 0.287187 7.51445 2.71375 -1.44235 1.4963 7.5744 -1.52136 13.1944 -0.533596 2.06756 5.47506 -0.905672 0.485692 -90.1122 11.4592 26.5936 11.3069 -0.201091 0.618544 -17.5459 -43.8443 -19.9954 9.61414 -0.254739 3.48553 5.26074 42.9579 8.19721 -0.176263 -0.07068 1.26622 4.03832 2.9681 6.85744 1.04683 -0.546484 1.82182 -3.80909 -0.892295 -6.71949 0.993472 -0.621916 0.655506 -0.42492 -0.123102 -0.756235 2.64253 0.566363 2.4162 4.88571 -0.796931 -1.6787 1.39394 -0.635138 0.899356 3.81757 -1.3344 -1.4893 0.622395 -0.856016 0.402182 4.00302 -1.39858 -1.55506 3.20814 0.514427 1.52547 6.97747 -3.20597 -2.81864 1.56545 -0.497974 0.68919 4.11161 -1.63126 -1.60623 0.679943 -1.17582 0.444246 6.16544 -2.49468 -2.37048 3.47877 0.200518 0.597719 7.45049 -2.89398 -1.87079 1.28208 -0.53155 0.44672 4.24372 -1.86473 -1.88297 0.710288 -0.970167 0.4032 6.23866 -2.7925 -2.72682 3.42483 -0.278904 -0.240415 7.53537 -2.89786 -0.897465 1.05787 -0.635999 0.156459 6.21476 -2.99612 -2.64667 0.42815 -0.754232 0.287187 6.00703 -2.87913 -2.55906 -4.17848 -1.02486 0.046356 15.1322 9.08559 0.368174 1.27155 -17.465 -0.237699 -3.28662 -3.14544 0.588599 0.529163 -17.3815 -1.19582 2.00525 -2.62682 -20.9326 -0.711591 -4.4863 4.0596 -0.567582 7.9308 -0.0650282 4.17848 -1.02486 0.046356 3.52277 -12.8615 -18.9036 -1.27155 -17.465 -0.237699 1.30381 44.8536 -4.53404 -0.529163 -17.3815 -1.19582 19.256 -4.4004 -4.97148 0.711591 -4.4863 4.0596 -0.311091 2.55936 -0.121992 
